<?xml version="1.0" standalone="no"?>
<!DOCTYPE svg PUBLIC "-//W3C//DTD SVG 20010904//EN"
 "http://www.w3.org/TR/2001/REC-SVG-20010904/DTD/svg10.dtd">
<svg version="1.0" xmlns="http://www.w3.org/2000/svg"
 width="2636.000000pt" height="1323.000000pt" viewBox="0 0 2636.000000 1323.000000"
 preserveAspectRatio="xMidYMid meet">

<g transform="translate(0.000000,1323.000000) scale(0.100000,-0.100000)"
fill="#000000" stroke="none">
<path d="M10 6620 l0 -6610 13170 0 13170 0 0 6610 0 6610 -13170 0 -13170 0
0 -6610z m2861 3737 c130 -34 228 -76 335 -145 235 -152 409 -389 481 -657 25
-92 27 -115 27 -290 0 -175 -2 -198 -27 -290 -127 -470 -543 -807 -1027 -832
-234 -12 -442 40 -646 160 -105 62 -287 236 -353 337 -85 132 -146 284 -172
430 -17 96 -17 294 0 390 72 404 368 747 756 874 135 44 225 56 385 52 112 -4
167 -10 241 -29z m6309 -612 c0 -4 -6 -19 -14 -34 -28 -54 -96 -264 -96 -297
0 -18 19 -104 41 -191 60 -231 70 -300 53 -382 -19 -86 -76 -286 -69 -241 32
225 30 279 -22 450 -58 193 -86 320 -79 363 12 74 147 337 173 337 7 0 13 -2
13 -5z m-370 -299 c0 -2 -11 -28 -24 -58 -46 -105 -87 -233 -88 -274 0 -23 23
-112 51 -198 28 -85 58 -194 68 -241 l18 -86 -40 -154 c-21 -85 -40 -153 -42
-151 -2 2 1 51 8 108 16 135 3 220 -54 370 -63 163 -100 302 -94 349 10 73
153 339 183 339 8 0 14 -2 14 -4z m-1805 -1307 c2029 -44 2441 -47 4620 -29
643 5 1171 7 1173 5 11 -10 13 -335 3 -550 -12 -272 -29 -441 -67 -664 -182
-1078 -722 -2032 -1514 -2673 -84 -67 -286 -214 -336 -244 -15 -8 -1 -12 65
-17 l84 -7 38 35 c42 37 90 65 114 65 21 0 21 -129 0 -170 -55 -106 -145 -381
-145 -442 0 -62 31 -27 104 116 l56 109 0 -115 0 -115 83 15 c45 8 84 18 87
22 3 3 25 12 50 19 25 7 89 33 143 56 l97 43 0 -68 0 -68 -44 -11 c-25 -6 -82
-11 -128 -11 -47 0 -137 -11 -210 -25 -421 -82 -1183 -159 -1890 -191 l-158
-7 0 25 0 26 138 6 c413 20 840 51 1147 81 196 20 489 56 494 61 3 3 -5 11
-17 20 -12 8 -32 34 -45 57 -19 36 -22 57 -22 147 1 73 6 119 17 150 10 24 16
45 15 46 -10 9 -270 13 -949 14 l-798 0 0 84 c0 97 -11 89 142 102 l87 7 6 71
c8 94 2 1612 -7 1621 -4 4 -57 12 -117 18 l-111 11 0 88 0 88 789 0 788 0 7
-167 c3 -93 9 -216 12 -275 l7 -108 -132 0 c-72 0 -131 3 -131 6 0 8 -49 301
-56 337 l-6 27 -256 -2 -257 -3 -3 -367 -2 -368 164 0 164 0 6 28 c3 15 10 59
16 97 6 39 13 82 16 98 l6 27 89 0 89 0 0 -340 0 -340 -90 0 -89 0 -6 33 c-4
17 -12 70 -18 117 l-12 85 -168 3 -167 2 0 -400 0 -400 289 0 289 0 10 48 c6
26 20 109 33 185 l22 137 128 0 128 0 3 -86 3 -87 102 77 c575 428 1048 1062
1316 1766 196 513 290 1006 304 1583 l6 259 -1024 -6 c-563 -4 -1321 -11
-1684 -15 -363 -5 -696 -8 -740 -6 -293 11 -3917 87 -3921 83 -8 -8 -10 -359
-4 -708 l5 -305 -182 -3 -183 -2 -5 22 c-3 13 -28 160 -55 328 -28 168 -53
318 -56 333 -5 23 -20 35 -86 68 -175 88 -334 124 -543 123 -269 -1 -496 -68
-707 -207 -381 -251 -611 -673 -690 -1267 -19 -146 -16 -595 5 -750 109 -785
485 -1268 1087 -1397 131 -28 458 -25 597 5 113 24 236 64 329 106 l61 27 59
355 59 354 187 0 187 0 -5 -142 c-3 -79 -9 -276 -13 -439 -4 -162 -11 -301
-16 -308 -10 -18 -182 -98 -308 -145 -423 -158 -993 -194 -1412 -90 -397 99
-742 310 -992 607 -218 261 -371 587 -443 947 -145 727 20 1461 442 1965 304
364 705 590 1194 672 151 25 511 25 674 -1 195 -30 404 -86 554 -150 49 -20
56 -13 56 65 0 31 3 77 6 103 l7 46 61 0 c33 0 889 -18 1901 -41z m7398 -2310
c385 -1034 697 -1882 695 -1884 -3 -3 -1302 825 -1315 839 -3 2 90 84 206 181
l210 177 -23 61 c-13 34 -133 346 -266 692 -133 347 -246 639 -250 650 -5 14
-78 -194 -249 -712 -132 -402 -241 -735 -241 -740 1 -4 102 -77 226 -162 135
-92 221 -158 216 -163 -13 -13 -1426 -846 -1430 -843 -5 4 1511 3785 1518
3785 3 0 319 -847 703 -1881z m1897 261 c77 -19 242 -91 281 -122 13 -12 14
-37 6 -225 l-10 -213 -118 0 c-115 0 -119 1 -124 23 -2 12 -16 92 -31 177 -14
85 -28 158 -30 162 -7 11 -97 38 -162 49 -42 6 -83 6 -129 -1 -181 -29 -289
-135 -301 -292 -13 -181 73 -290 314 -397 324 -145 429 -206 529 -306 128
-128 185 -314 155 -510 -30 -199 -136 -343 -322 -436 -42 -21 -114 -49 -160
-61 -74 -21 -104 -23 -288 -22 -196 1 -210 2 -322 32 -65 17 -161 51 -213 76
l-96 45 6 63 c2 35 8 138 11 231 l6 167 118 0 118 0 6 -27 c3 -16 17 -99 31
-187 14 -87 28 -162 31 -167 2 -5 42 -20 87 -34 267 -85 538 -5 607 180 24 63
30 128 19 189 -26 144 -97 209 -351 320 -345 150 -490 257 -576 424 -52 102
-67 166 -66 292 0 118 17 190 67 283 80 152 273 273 487 306 102 16 321 6 420
-19z m5937 -987 l324 -971 104 -13 105 -12 0 -73 0 -74 -445 0 -445 0 0 74 0
74 98 11 c138 17 162 22 162 33 0 6 -31 109 -70 229 -38 121 -70 222 -70 224
0 3 -151 4 -336 3 l-337 -3 -73 -225 c-40 -123 -72 -226 -70 -227 2 -2 249
-43 261 -43 3 0 5 -34 5 -75 l0 -75 -345 0 -345 0 0 75 0 74 33 6 c17 3 74 11
126 19 51 8 94 16 96 18 1 2 145 433 320 958 175 525 320 959 322 963 3 4 61
6 131 5 l126 -3 323 -972z m-3653 790 c3 -98 8 -229 11 -290 l4 -113 -109 0
c-61 0 -110 2 -110 4 0 19 -61 390 -66 397 -3 5 -94 9 -203 9 l-199 0 -7 -445
c-7 -443 2 -1315 14 -1315 3 0 65 -7 136 -15 72 -8 133 -15 138 -15 4 0 7 -34
7 -75 l0 -75 -495 0 -495 0 0 75 c0 41 3 75 8 75 4 0 63 7 132 15 69 8 131 15
138 15 10 0 12 179 10 878 l-3 877 -194 3 c-107 1 -198 -1 -203 -6 -5 -5 -68
-369 -68 -398 0 -2 -50 -4 -111 -4 l-110 0 5 133 c4 72 9 203 12 290 l6 157
873 0 873 0 6 -177z m1261 167 c141 -13 226 -35 331 -85 107 -52 183 -121 230
-210 44 -83 58 -154 52 -272 -4 -88 -9 -108 -41 -175 -65 -135 -201 -238 -386
-291 l-80 -23 72 -21 c132 -39 229 -130 283 -263 14 -36 53 -179 85 -319 33
-140 62 -257 64 -260 4 -4 187 -29 223 -31 8 0 12 -22 12 -75 l0 -74 -37 -11
c-122 -34 -335 -37 -438 -6 -61 19 -128 74 -155 127 -11 21 -47 169 -80 329
-67 322 -84 378 -135 437 -56 66 -116 86 -273 91 l-133 4 3 -390 c2 -215 6
-393 10 -397 6 -6 199 -33 246 -35 8 0 12 -22 12 -75 l0 -75 -465 0 -465 0 0
75 c0 41 3 75 8 75 13 0 186 20 220 26 l32 5 0 873 0 874 -117 12 c-65 6 -124
13 -130 15 -9 3 -13 28 -13 80 l0 75 483 0 c265 0 527 -5 582 -10z m-13045
-1067 c173 -522 319 -951 324 -955 5 -3 47 -10 93 -13 l83 -7 0 -84 0 -84
-475 0 -476 0 3 83 3 82 115 16 c63 9 116 17 117 18 1 0 -9 34 -22 74 -13 39
-42 132 -65 205 l-41 132 -307 -2 -307 -3 -63 -193 c-35 -107 -62 -196 -59
-198 2 -3 44 -11 93 -19 149 -25 134 -13 134 -110 l0 -85 -330 0 -330 0 0 85
c0 97 -16 85 144 109 54 9 100 17 101 18 1 2 143 425 314 941 l313 937 162 0
162 0 314 -947z m2244 780 c3 -93 9 -216 12 -275 l7 -108 -132 0 c-72 0 -131
3 -131 6 0 8 -49 301 -56 337 l-6 27 -266 -2 -267 -3 -3 -367 -2 -368 169 0
169 0 6 28 c3 15 10 61 16 102 19 133 8 120 110 120 l90 0 0 -360 0 -360 -90
0 -89 0 -6 33 c-6 39 -35 235 -35 242 0 3 -76 5 -170 5 l-170 0 0 -390 c0
-214 3 -390 8 -390 12 0 183 -19 230 -25 l42 -6 0 -85 0 -84 -520 0 -520 0 0
84 c0 97 -11 89 142 102 l87 7 6 71 c8 94 2 1612 -7 1621 -4 4 -57 12 -117 18
l-111 11 0 88 0 88 799 0 798 0 7 -167z m2556 -1868 c418 -51 734 -136 809
-218 87 -95 -55 -199 -399 -293 -1260 -346 -4545 -536 -6710 -388 -228 15
-611 53 -752 75 l-78 11 0 35 c0 28 3 33 18 29 39 -12 357 -47 604 -66 985
-75 2324 -77 3733 -5 1641 84 2993 262 3354 443 89 44 120 79 103 116 -21 47
-137 97 -305 132 -45 10 -91 25 -102 35 -35 31 -92 49 -155 49 l-60 0 0 -78 0
-78 -57 -28 c-76 -37 -219 -132 -237 -157 -12 -18 -14 -18 -20 -4 -11 31 -6
106 10 137 9 16 33 50 55 73 l39 43 -25 6 c-14 4 -25 14 -25 22 0 14 8 15 53
10 41 -5 61 -3 91 12 l40 20 -30 5 c-16 3 -57 9 -91 12 l-63 7 0 34 c0 34 0
34 38 29 20 -3 93 -12 162 -20z"/>
<path d="M2440 10299 c-242 -37 -498 -186 -652 -379 -152 -190 -230 -408 -231
-650 -1 -134 9 -199 50 -325 145 -449 582 -750 1048 -722 271 17 513 131 703
332 129 137 211 287 258 475 29 113 26 374 -4 487 -54 198 -146 357 -289 493
-142 138 -286 219 -471 266 -111 29 -303 40 -412 23z m287 -170 c439 -59 765
-458 740 -904 -8 -124 -28 -205 -78 -313 -116 -252 -340 -431 -609 -488 -88
-18 -263 -18 -358 2 -203 42 -390 163 -517 335 -60 81 -95 151 -131 259 -25
78 -28 98 -28 245 -1 139 2 171 22 239 122 422 525 684 959 625z"/>
<path d="M2493 10091 c-308 -49 -560 -254 -662 -537 -42 -117 -55 -200 -48
-323 12 -225 96 -404 267 -564 64 -60 104 -88 183 -127 130 -64 195 -81 333
-87 131 -6 239 12 353 59 87 36 200 110 254 165 l37 39 -170 122 c-93 67 -177
122 -186 122 -13 0 -14 3 -4 15 7 8 9 15 5 15 -4 0 9 18 28 40 42 45 73 104
86 157 9 37 9 37 11 8 2 -28 3 -27 11 10 4 22 7 54 7 70 -1 25 -2 24 -8 -10
-5 -27 -6 -10 -5 51 3 99 13 129 47 138 13 3 85 26 161 50 75 24 137 43 137
41 0 -2 -67 -40 -150 -85 -107 -58 -156 -80 -170 -75 -19 6 -20 4 -14 -22 4
-15 9 -31 13 -34 5 -6 326 -29 394 -29 l28 0 -7 58 c-11 90 -52 220 -96 303
-39 74 -102 159 -110 149 -73 -88 -256 -319 -262 -328 -4 -7 -3 -18 2 -25 5
-7 13 -23 16 -37 6 -20 5 -22 -4 -10 -10 13 -11 13 -7 -2 3 -9 8 -34 12 -55 4
-31 2 -27 -13 18 -67 198 -275 300 -469 227 -112 -41 -223 -186 -223 -289 0
-18 -4 -28 -10 -24 -6 4 -10 -7 -9 -27 0 -27 2 -30 9 -13 7 16 9 12 11 -20 2
-22 3 -50 3 -62 0 -12 3 -20 7 -18 3 3 14 -14 24 -36 10 -22 39 -61 64 -87 24
-26 45 -50 45 -54 1 -3 5 -10 10 -15 5 -5 6 -3 2 5 -9 16 -7 15 39 -8 21 -11
55 -23 74 -26 30 -6 33 -8 16 -15 -24 -10 69 -2 140 12 27 5 75 24 105 41 30
17 49 24 43 16 -7 -8 -10 -17 -7 -21 7 -7 -55 -39 -107 -56 -42 -14 -41 -6
-60 -266 -5 -82 -12 -156 -15 -164 -13 -39 -33 28 -58 189 -38 249 -31 228
-77 240 -25 7 -37 15 -33 22 4 7 3 8 -4 4 -6 -4 -29 2 -50 13 l-38 19 -154
-129 c-225 -187 -235 -176 -57 62 86 114 115 161 114 181 -1 14 -5 24 -9 22
-3 -2 -15 19 -26 48 l-20 53 -195 21 c-298 33 -300 42 -17 79 107 14 201 28
208 30 6 2 12 14 12 26 0 12 12 48 26 80 l27 59 -118 157 c-115 153 -139 193
-116 193 6 0 76 -53 154 -118 176 -146 188 -154 207 -141 13 9 12 10 -2 5 -37
-11 -16 6 34 29 34 16 66 23 88 21 19 -2 26 -1 16 1 -15 4 -16 7 -6 13 9 5 23
78 41 210 26 190 38 237 53 212 5 -9 46 -371 46 -409 0 -8 8 -16 18 -19 9 -3
45 -19 80 -36 l63 -30 155 119 c85 65 163 124 172 131 15 12 13 16 -23 48
-112 97 -229 161 -360 194 -91 23 -235 33 -312 21z m-15 -429 c-4 -21 -41 -27
-55 -10 -9 10 -61 191 -89 303 -2 11 30 -47 71 -128 42 -82 75 -156 73 -165z
m397 152 c-49 -157 -57 -174 -86 -174 -40 0 -30 37 48 183 43 80 79 144 81
142 2 -2 -17 -69 -43 -151z m-105 -255 c55 -14 61 -22 67 -88 l6 -61 -30 0
c-32 0 -43 17 -43 67 0 73 -180 73 -259 0 -43 -40 -71 -115 -71 -191 0 -38 5
-86 11 -107 16 -52 64 -108 113 -130 70 -32 199 -20 210 19 2 10 7 32 11 50 6
28 11 32 37 32 l31 0 -7 -46 c-3 -26 -6 -55 -6 -64 0 -28 -110 -54 -207 -48
-185 11 -293 117 -293 288 0 58 6 86 24 125 65 138 227 200 406 154z m-703
-49 c171 -49 183 -55 183 -80 0 -37 -41 -35 -126 9 -113 57 -210 111 -202 111
4 0 69 -18 145 -40z m632 -208 c34 -84 61 -155 61 -158 0 -3 -19 7 -42 21 -24
14 -50 30 -58 35 -13 7 -12 11 2 27 15 17 15 22 -7 73 -15 35 -26 50 -29 40
-35 -93 -37 -104 -21 -112 25 -15 18 -24 -46 -58 -34 -18 -60 -28 -58 -23 18
46 133 312 135 310 1 -1 30 -71 63 -155z m-454 -172 c18 -28 -19 -49 -172 -98
-87 -28 -159 -50 -160 -49 -1 2 60 37 135 79 129 72 183 91 197 68z m240 -242
c3 -16 -19 -69 -70 -168 -41 -80 -74 -141 -75 -137 0 16 84 302 93 315 16 20
46 14 52 -10z m343 10 c5 -7 28 -71 51 -143 23 -71 46 -142 51 -157 5 -16 7
-28 6 -28 -2 0 -41 68 -86 150 -56 104 -79 157 -75 170 7 22 37 27 53 8z"/>
<path d="M2637 9880 c-12 -64 -27 -178 -27 -204 0 -22 4 -26 30 -26 35 0 34
-10 16 150 -10 89 -14 107 -19 80z"/>
<path d="M2186 9700 c27 -37 138 -186 144 -193 3 -4 16 3 29 16 l22 24 -83 69
c-109 91 -127 104 -112 84z m184 -153 c0 -2 -10 -12 -22 -23 l-23 -19 19 23
c18 21 26 27 26 19z"/>
<path d="M2995 9639 c-116 -90 -112 -85 -90 -109 10 -11 22 -19 26 -18 5 2 97
114 152 186 16 21 5 13 -88 -59z"/>
<path d="M2618 9633 c12 -2 30 -2 40 0 9 3 -1 5 -23 4 -22 0 -30 -2 -17 -4z"/>
<path d="M2518 9623 c7 -3 16 -2 19 1 4 3 -2 6 -13 5 -11 0 -14 -3 -6 -6z"/>
<path d="M2739 9614 c83 -29 154 -88 200 -164 11 -19 21 -30 21 -24 0 24 -64
106 -110 139 -52 38 -109 65 -137 65 -10 -1 2 -8 26 -16z"/>
<path d="M2460 9605 c-14 -8 -20 -14 -15 -14 6 0 21 6 35 14 14 8 21 14 15 14
-5 0 -21 -6 -35 -14z"/>
<path d="M2290 9439 c-7 -11 -10 -23 -7 -25 2 -2 9 7 15 21 14 30 7 33 -8 4z"/>
<path d="M2101 9274 c-52 -7 -96 -15 -98 -17 -4 -4 182 -27 217 -27 16 0 20 7
20 30 0 35 2 35 -139 14z"/>
<path d="M3010 9260 c0 -16 3 -30 8 -30 16 0 235 40 238 43 5 4 -157 17 -213
17 -30 0 -33 -3 -33 -30z"/>
<path d="M3185 9226 l-179 -31 -19 -50 c-10 -27 -23 -55 -29 -62 -7 -9 -3 -21
14 -42 55 -69 253 -300 258 -300 3 0 22 23 43 52 79 108 135 257 152 405 l7
62 -34 -1 c-18 -1 -114 -15 -213 -33z m7 -142 c77 -42 137 -78 136 -80 -6 -6
-295 91 -312 105 -28 24 -17 48 23 50 8 1 77 -33 153 -75z"/>
<path d="M2962 9136 c-7 -19 -28 -57 -47 -84 -18 -27 -30 -53 -27 -59 8 -12
189 -143 198 -143 5 0 -80 102 -137 164 -18 20 -19 20 -41 0 -20 -17 -20 -16
3 16 34 46 71 119 67 131 -2 6 -9 -5 -16 -25z"/>
<path d="M2322 9013 c-28 -25 -148 -188 -131 -178 8 5 54 42 102 83 85 71 87
75 71 93 -21 23 -17 23 -42 2z m39 -10 c13 -16 12 -17 -3 -4 -10 7 -18 15 -18
17 0 8 8 3 21 -13z"/>
<path d="M2780 8940 c-19 -11 -31 -19 -27 -20 11 0 67 29 67 35 0 7 -1 7 -40
-15z"/>
<path d="M2688 8903 c7 -3 16 -2 19 1 4 3 -2 6 -13 5 -11 0 -14 -3 -6 -6z"/>
<path d="M2607 8892 c-12 -2 -16 -10 -12 -25 2 -12 12 -71 22 -132 l17 -110 7
60 c20 182 20 202 1 207 -9 2 -25 2 -35 0z"/>
<path d="M10855 3890 c3 -5 35 -10 71 -10 41 0 63 4 59 10 -3 6 -35 10 -71 10
-41 0 -63 -4 -59 -10z"/>
<path d="M21642 5579 c-200 -618 -252 -780 -252 -789 0 -7 92 -10 275 -10 151
0 275 2 275 5 0 10 -262 830 -270 844 -5 9 -14 -8 -28 -50z"/>
<path d="M19446 5869 c-3 -17 -6 -200 -6 -405 l0 -374 118 0 c127 0 221 16
300 50 62 27 144 111 172 175 64 149 44 352 -45 460 -41 51 -133 100 -214 115
-29 5 -113 10 -186 10 l-132 0 -7 -31z"/>
<path d="M6032 5057 c-67 -211 -124 -391 -128 -400 -6 -16 13 -17 245 -17 138
0 251 3 251 7 0 8 -241 787 -244 790 -1 2 -57 -169 -124 -380z"/>
</g>
</svg>
