<svg id="Layer_1" data-name="Layer 1" xmlns="http://www.w3.org/2000/svg" viewBox="0 0 511.22 178.5"><defs><style>.cls-1{fill:#724f2c;}.cls-2{fill:#e2e2e2;}.cls-3,.cls-4,.cls-5,.cls-6,.cls-8{fill:none;stroke-miterlimit:10;}.cls-3,.cls-4,.cls-5,.cls-6{stroke:#e2e2e2;}.cls-3{stroke-width:2px;}.cls-5{stroke-width:0.25px;}.cls-6{stroke-width:0.75px;}.cls-7{fill:#ece5d1;}.cls-8{stroke:#f2f2f3;stroke-width:5px;}.cls-9{fill:#f2f2f3;}</style></defs><path class="cls-1" d="M57.39,353.77v1.11l-1.41.29.58-3H58l-.09,2.94a10.37,10.37,0,0,1-4.58,1c-4.56,0-7.66-2.92-7.66-7.07s3.25-7.08,7.65-7.08a9.61,9.61,0,0,1,4.37,1l.09,3h-1.4l-.58-3,1.41.29v1.23A5.56,5.56,0,0,0,53.56,343c-3,0-5.46,2.1-5.46,6.06s2.21,6.05,5.31,6.05A6.66,6.66,0,0,0,57.39,353.77Z" transform="translate(-25 -322.27)"/><path class="cls-2" d="M57.39,353.77v1.11l-1.41.29.58-3H58l-.09,2.94a10.37,10.37,0,0,1-4.58,1c-4.56,0-7.66-2.92-7.66-7.07s3.25-7.08,7.65-7.08a9.61,9.61,0,0,1,4.37,1l.09,3h-1.4l-.58-3,1.41.29v1.23A5.56,5.56,0,0,0,53.56,343c-3,0-5.46,2.1-5.46,6.06s2.21,6.05,5.31,6.05A6.66,6.66,0,0,0,57.39,353.77Z" transform="translate(-25 -322.27)"/><path class="cls-2" d="M49.64,352.38l3.29-7.72,3,7.68-2.87-1.73.92-.72L52.83,347l-1,3,1,.64Z" transform="translate(-25 -322.27)"/><circle class="cls-3" cx="27.04" cy="27.04" r="26.04"/><circle class="cls-4" cx="27.16" cy="26.87" r="20.29"/><circle class="cls-5" cx="27.6" cy="26.98" r="8.66"/><circle class="cls-5" cx="27.65" cy="26.93" r="9.09"/><path class="cls-6" d="M58.5,342.2l8.1-6.2h0l-6.46,8" transform="translate(-25 -322.27)"/><path class="cls-6" d="M47.23,342.36l-7.85-6.51s0,0,0,0l6.14,8.22" transform="translate(-25 -322.27)"/><path class="cls-6" d="M47.23,356.09l-7.85,6.51h0l6.14-8.22" transform="translate(-25 -322.27)"/><path class="cls-6" d="M60.08,354.29,66.74,362h0l-8.33-6" transform="translate(-25 -322.27)"/><path class="cls-6" d="M51.76,340.37l1.38-10.19h0l1.05,10.29" transform="translate(-25 -322.27)"/><path class="cls-6" d="M43.89,348.25l-10.11,1.32s0,0,0,0L44,350.67" transform="translate(-25 -322.27)"/><path class="cls-6" d="M53.88,358.06l-.8,10.16h0L51.45,358.1" transform="translate(-25 -322.27)"/><path class="cls-6" d="M61.56,348.23l10.17.71h0l-10.12,1.71" transform="translate(-25 -322.27)"/><path class="cls-2" d="M61.88,345l7.74-2.46a0,0,0,0,1,0,.05l-7,3.81S60.7,346.81,61.88,345Z" transform="translate(-25 -322.27)"/><path class="cls-2" d="M62.81,351.78l7.11,3.94s0,.06,0,0l-7.55-2.46S60.71,352.15,62.81,351.78Z" transform="translate(-25 -322.27)"/><path class="cls-2" d="M57.7,358.24,60.16,366a0,0,0,0,1,0,0l-3.81-7S55.91,357.06,57.7,358.24Z" transform="translate(-25 -322.27)"/><path class="cls-2" d="M49.45,358.84l-3.68,7.24a0,0,0,0,1-.05,0l2.18-7.64S49,356.75,49.45,358.84Z" transform="translate(-25 -322.27)"/><path class="cls-2" d="M56,339.35l3.84-7.16a0,0,0,0,1,0,0l-2.35,7.59S56.37,341.45,56,339.35Z" transform="translate(-25 -322.27)"/><path class="cls-2" d="M47.69,340l-2.13-7.83a0,0,0,1,1,.06,0l3.5,7.12S49.42,341.26,47.69,340Z" transform="translate(-25 -322.27)"/><path class="cls-2" d="M42.62,346.11l-7.23-3.7s0-.06,0-.05l7.64,2.2S44.72,345.67,42.62,346.11Z" transform="translate(-25 -322.27)"/><path class="cls-2" d="M43.23,353.67l-7.74,2.47s-.05,0,0-.06l7-3.81S44.41,351.89,43.23,353.67Z" transform="translate(-25 -322.27)"/><path class="cls-2" d="M381.42,465.55c0-4.48-2.4-6.49-7.85-8.8l-3-1.31c-8.15-3.58-13.26-8.06-13.26-16.17,0-9,7.19-14.4,17.53-14.4a22.38,22.38,0,0,1,13.06,3.95l-.53,10.3h-5.64l-1.94-11.51,5.37,2.35v3.81c-3.8-3.29-6.57-4.73-10.44-4.73-5,0-8.88,2.86-8.88,7.79,0,4.41,2.69,6.87,7.58,8.95l3.19,1.39c9.62,4.14,13.45,8.45,13.45,15.89,0,9-7,14.93-18.44,14.93-5.56,0-11.4-1.55-15.25-4l.45-11h5.7l1.92,12-5.28-2v-3.66c4.65,3,7.45,4.45,12.35,4.45C377.67,473.81,381.42,470.57,381.42,465.55Z" transform="translate(-25 -322.27)"/><path class="cls-2" d="M396.07,430.21l4.37-4.06L398.28,440H393.1l.43-13.87h42L436,440h-5.16l-2.15-13.87,4.34,4.06ZM415.67,472l10.79,1.14v3.58H402.62v-3.58L413.29,472Zm-5.95-22.21c0-7.85,0-15.77-.22-23.62h10.05c-.22,7.7-.22,15.62-.22,23.62v3.28c0,7.88,0,15.8.22,23.65H409.5c.22-7.69.22-15.62.22-23.62Z" transform="translate(-25 -322.27)"/><path class="cls-2" d="M440.29,429.73v-3.58h11.16v4.72h-1ZM452.41,472l10.2,1.14v3.58H440.29v-3.58l10.2-1.14Zm-5.76-22.21c0-7.85,0-15.77-.23-23.62h9.95c-.23,7.84-.23,15.48-.23,24.11v2.31c0,8.36,0,16.28.23,24.13h-9.95c.23-7.69.23-15.62.23-23.62Zm4.85-.23h9c7.67,0,10.71-4.42,10.71-10,0-6.26-3.28-9.49-10.14-9.49h-9.62v-4h11.19c11.5,0,18.06,4.84,18.06,13,0,6.14-4.58,12.07-16,12.85l.14-.69c8.57.44,11.67,3.69,13.31,11.22l2.79,12.2L476.68,472l9.41,1.08v3.58a22.11,22.11,0,0,1-6.76.93c-5.46,0-8.33-1.55-9.14-6.29L468,460.74c-1.11-5.64-3.39-7.35-8.67-7.35H451.5Z" transform="translate(-25 -322.27)"/><path class="cls-2" d="M488,473.12l7.52-1.14h1.4l7.58,1.14v3.58H488Zm21.57-47.21h6.08l16.86,50.79h-9.84l-13.75-43.24,2.25-2-14.63,45.2H492.6Zm-8.32,31.21h20l1.43,4H500.05Zm13.52,16.09,8.84-1.15h3.25l9.36,1.15v3.49H514.78Z" transform="translate(-25 -322.27)"/><path class="cls-2" d="M281.91,477.61l36.55-91.17q16.88,45.39,33.74,90.77L320.37,456.8l10.14-8.51-13.16-34.23L305.61,449.5l11,7.63Z" transform="translate(-25 -322.27)"/><path class="cls-2" d="M116.6,475.18l7.63-1.14h1.32l7,1.14v4.1h-16Zm21.07-46.08h7.66L162,479.28H149.33l-12.65-40.92,2.77-3.85L125.3,479.28h-4.39Zm-8,31.19h20l1.66,4.44H128.46Zm12.46,15.06,8.37-1.14h5l9.51,1.14v3.93H142.16Z" transform="translate(-25 -322.27)"/><path class="cls-2" d="M168.19,433.3v-4.09h11.93v5.24H179ZM182.35,474l10.76,1.14v4.1H168.19v-4.1L179,474Zm-8.46-21.21c0-7.85,0-15.77-.22-23.62h12.89c-.22,7.7-.22,15.62-.22,23.62v2.51c0,8.16,0,16.09.22,23.94H173.67c.22-7.7.22-15.62.22-23.63Zm24.78-23.62,5.36,4.3H180.12v-4.3h26.4l.52,13.12h-6.18Zm-2,26.47H180.12v-4.49h16.54Zm-2.27-3.18,1.11-7.31h4.3v17.17h-4.3l-1.11-7.68Z" transform="translate(-25 -322.27)"/><path class="cls-2" d="M210.72,433.3v-4.09h11.93v5.24h-1.17ZM222.65,474v5.24H210.72v-4.1L221.48,474Zm-6.22-21.21c0-7.85,0-15.77-.22-23.62H229.1c-.23,7.7-.23,15.62-.23,23.62v2.51c0,8.16,0,16.09.23,23.94H216.21c.22-7.7.22-15.62.22-23.63Zm24.29-23.62,5.37,4.3H222.65v-4.3h25.92l.52,13.12h-6.18ZM239,455.68H222.65v-4.49H239Zm11.61,10.47-.52,13.13H222.65V475h24.92l-5.37,4.25,2.19-13.13ZM236.71,452.5l1.11-7.31h4.3V461.6h-4.3l-1.11-7.69Z" transform="translate(-25 -322.27)"/><path class="cls-7" d="M199.52,373.56c.17-1.63,1.51-6.78-.47-11.08-.12-.26-.25-.77-.35-1a48.81,48.81,0,0,1-2.11-6.39,4.46,4.46,0,0,1,.17-3.33,32.57,32.57,0,0,1,3.78-6.77c.19-.25.62,0,.48.27a58,58,0,0,0-2.38,6.06,5.2,5.2,0,0,0,0,3.46,73.9,73.9,0,0,1,2.86,9.84,4.66,4.66,0,0,1-.1,2.1l-1.82,6.88S199.52,373.6,199.52,373.56Z" transform="translate(-25 -322.27)"/><path class="cls-7" d="M207.8,366.13c.2-1.62,1.54-6.78-.13-11-.1-.25-.2-.76-.28-1a51.44,51.44,0,0,1-1.72-6.3,4.88,4.88,0,0,1,.24-3.31,36.18,36.18,0,0,1,3.57-6.83.25.25,0,0,1,.43.26c-.72,1.51-1.69,4.27-2.3,6.08a5.69,5.69,0,0,0-.08,3.44,75.71,75.71,0,0,1,2.31,9.69,5.45,5.45,0,0,1-.14,2.09l-1.83,6.89A0,0,0,0,1,207.8,366.13Z" transform="translate(-25 -322.27)"/><path class="cls-8" d="M244.22,476.56c1-.53.07.57,1,0,31.05-17.74,49.57-52.59,49.29-91.73,0-1.85.13-3.69,0-5.5l-84.68.58-6.11,0" transform="translate(-25 -322.27)"/><path class="cls-8" d="M112.84,395c-.24-3.58-.31-7.2-.23-10.86,0-2.13.14-4.26.31-6.35l105.44,2.27" transform="translate(-25 -322.27)"/><path class="cls-9" d="M242.89,475.92h0L240,477.55c26.81.95,44.51,3.49,44.63,7.07.14,3.73-18.89,7.66-47.52,10.45-2.41.24-4.89.47-7.47.68h0c-13.35,1.15-28.46,2.05-44.45,2.61-38.1,1.28-71.27.21-88.24-2.45l0,1.52c18.3,2.89,51.06,4.11,88.32,2.84,57.09-1.95,103.19-9,102.94-15.76C288,480.3,270.06,477.21,242.89,475.92Z" transform="translate(-25 -322.27)"/><path class="cls-9" d="M243.06,480.14h0m-31.82,14.31c34.86-1.37,62.54-5.73,62.38-9.9-.1-2.66-11.12-5.59-28.35-6.4l-.35,1h0c17,.6,26.39,3.25,26.47,5.53s-12,4.85-30.16,6.62c-1.53.15-3.11.31-4.74.44h0c-7.64.65-16.18,1.18-25.23,1.54" transform="translate(-25 -322.27)"/><path class="cls-1" d="M113.22,462.09v8l-8.88,2.05L108,450.42h8.82l-.57,21.31a58.65,58.65,0,0,1-28.84,7.06c-28.7,0-48.22-21.12-48.22-51.25,0-29.6,20.42-51.24,48.14-51.24a53.87,53.87,0,0,1,27.52,7l.57,21.33h-8.82l-3.63-21.77,8.87,2.06v8.89c-8-7.68-15.89-10.17-22.71-10.17-19,0-34.4,15.23-34.4,43.87S68.59,471.4,88.12,471.4A38.51,38.51,0,0,0,113.22,462.09Z" transform="translate(-25 -322.27)"/><path class="cls-2" d="M113.22,462.09v8l-8.88,2.05L108,450.42h8.82l-.57,21.31a58.65,58.65,0,0,1-28.84,7.06c-28.7,0-48.22-21.12-48.22-51.25,0-29.6,20.42-51.24,48.14-51.24a53.87,53.87,0,0,1,27.52,7l.57,21.33h-8.82l-3.63-21.77,8.87,2.06v8.89c-8-7.68-15.89-10.17-22.71-10.17-19,0-34.4,15.23-34.4,43.87S68.59,471.4,88.12,471.4A38.51,38.51,0,0,0,113.22,462.09Z" transform="translate(-25 -322.27)"/></svg>